<svg width="256" height="256" viewBox="0 0 256 256" fill="none" xmlns="http://www.w3.org/2000/svg">
<path d="M216 17H40C17.9086 17 0 34.9086 0 57V199C0 221.091 17.9086 239 40 239H216C238.091 239 256 221.091 256 199V57C256 34.9086 238.091 17 216 17Z" fill="#CBD5E0"/>
<path d="M216 26H40C22.8792 26 9 39.8792 9 57V199C9 216.121 22.8792 230 40 230H216C233.121 230 247 216.121 247 199V57C247 39.8792 233.121 26 216 26Z" fill="white"/>
<path d="M24 57C24 48.1634 31.1634 41 40 41H216C224.837 41 232 48.1634 232 57V99H24V57Z" fill="#EF8508"/>
<path d="M24 157H232V199C232 207.837 224.837 215 216 215H40C31.1634 215 24 207.837 24 199V157Z" fill="#0AB16F"/>
<path d="M24 99H232V157H24V99Z" fill="white"/>
<path fill-rule="evenodd" clip-rule="evenodd" d="M127.331 148.787C138.994 148.787 148.449 139.332 148.449 127.669C148.449 116.006 138.994 106.551 127.331 106.551C115.668 106.551 106.213 116.006 106.213 127.669C106.213 139.332 115.668 148.787 127.331 148.787ZM127.331 151.49C140.487 151.49 151.152 140.825 151.152 127.669C151.152 114.513 140.487 103.848 127.331 103.848C114.175 103.848 103.51 114.513 103.51 127.669C103.51 140.825 114.175 151.49 127.331 151.49Z" fill="#1E66CC"/>
<path d="M126.791 110.492C126.824 110.077 127.431 110.077 127.464 110.492L128.293 120.831C128.32 121.166 128.766 121.26 128.927 120.965L133.889 111.858C134.088 111.492 134.643 111.739 134.504 112.132L131.057 121.914C130.945 122.231 131.314 122.499 131.581 122.294L139.818 115.992C140.149 115.74 140.555 116.191 140.269 116.493L133.141 124.027C132.91 124.271 133.138 124.666 133.464 124.588L143.553 122.181C143.958 122.085 144.145 122.662 143.762 122.822L134.185 126.805C133.875 126.934 133.922 127.388 134.253 127.449L144.448 129.354C144.857 129.431 144.793 130.035 144.378 130.024L134.009 129.768C133.673 129.76 133.532 130.193 133.809 130.384L142.348 136.271C142.69 136.507 142.387 137.033 142.011 136.855L132.643 132.403C132.34 132.259 132.035 132.598 132.21 132.884L137.616 141.736C137.833 142.091 137.342 142.448 137.071 142.132L130.323 134.255C130.105 134 129.688 134.185 129.732 134.518L131.071 144.803C131.124 145.216 130.53 145.342 130.412 144.943L127.451 135.003C127.355 134.681 126.899 134.681 126.804 135.003L123.843 144.943C123.725 145.342 123.131 145.216 123.184 144.803L124.523 134.518C124.567 134.185 124.15 134 123.931 134.255L117.184 142.132C116.913 142.448 116.422 142.091 116.639 141.736L122.045 132.884C122.22 132.598 121.915 132.259 121.612 132.403L112.244 136.855C111.868 137.033 111.565 136.507 111.907 136.271L120.446 130.384C120.723 130.193 120.582 129.76 120.246 129.768L109.877 130.024C109.462 130.035 109.398 129.431 109.807 129.354L120.002 127.449C120.333 127.388 120.38 126.934 120.07 126.805L110.493 122.822C110.109 122.662 110.297 122.085 110.702 122.181L120.791 124.588C121.117 124.666 121.345 124.271 121.114 124.027L113.986 116.493C113.7 116.191 114.106 115.74 114.436 115.992L122.674 122.294C122.941 122.498 123.31 122.231 123.198 121.914L119.75 112.132C119.612 111.739 120.167 111.492 120.366 111.858L125.328 120.965C125.489 121.26 125.935 121.166 125.962 120.831L126.791 110.492Z" fill="#1E66CC"/>
<circle cx="127.331" cy="127.669" r="5.09002" fill="white"/>
<circle cx="127.331" cy="127.669" r="3.88574" fill="#1E66CC"/>
</svg>
